<mxfile host="app.diagrams.net" agent="Mozilla/5.0 (Windows NT 10.0; Win64; x64; rv:143.0) Gecko/20100101 Firefox/143.0" version="28.2.5">
  <diagram name="Page-1" id="rf2fQ5KeaceVcS20yqXe">
    <mxGraphModel dx="983" dy="601" grid="1" gridSize="10" guides="1" tooltips="1" connect="1" arrows="1" fold="1" page="1" pageScale="1" pageWidth="850" pageHeight="1100" math="0" shadow="0">
      <root>
        <mxCell id="0" />
        <mxCell id="1" parent="0" />
        <mxCell id="q-AmzgmCeMlgFkVJrfTR-6" value="ApplicationLayer" style="swimlane;horizontal=0;whiteSpace=wrap;html=1;direction=west;" vertex="1" parent="1">
          <mxGeometry x="383" y="330" width="170" height="130" as="geometry" />
        </mxCell>
        <mxCell id="q-AmzgmCeMlgFkVJrfTR-8" value="Scheduler" style="rounded=0;whiteSpace=wrap;html=1;" vertex="1" parent="q-AmzgmCeMlgFkVJrfTR-6">
          <mxGeometry x="21" y="9" width="78" height="30" as="geometry" />
        </mxCell>
        <mxCell id="q-AmzgmCeMlgFkVJrfTR-9" value="Worker" style="rounded=0;whiteSpace=wrap;html=1;" vertex="1" parent="q-AmzgmCeMlgFkVJrfTR-6">
          <mxGeometry x="21" y="80" width="80" height="30" as="geometry" />
        </mxCell>
        <mxCell id="q-AmzgmCeMlgFkVJrfTR-7" value="Presentation Layer" style="swimlane;horizontal=0;whiteSpace=wrap;html=1;direction=west;" vertex="1" parent="1">
          <mxGeometry x="410" y="130" width="170" height="130" as="geometry" />
        </mxCell>
        <mxCell id="q-AmzgmCeMlgFkVJrfTR-2" value="View" style="rounded=0;whiteSpace=wrap;html=1;" vertex="1" parent="q-AmzgmCeMlgFkVJrfTR-7">
          <mxGeometry x="10" y="10" width="130" height="30" as="geometry" />
        </mxCell>
        <mxCell id="q-AmzgmCeMlgFkVJrfTR-3" value="ViewModel" style="rounded=0;whiteSpace=wrap;html=1;" vertex="1" parent="q-AmzgmCeMlgFkVJrfTR-7">
          <mxGeometry x="10" y="80" width="130" height="30" as="geometry" />
        </mxCell>
        <mxCell id="q-AmzgmCeMlgFkVJrfTR-12" value="Domain Layer" style="swimlane;horizontal=0;whiteSpace=wrap;html=1;direction=west;" vertex="1" parent="1">
          <mxGeometry x="318" y="490" width="290" height="110" as="geometry" />
        </mxCell>
        <mxCell id="q-AmzgmCeMlgFkVJrfTR-13" value="Core API" style="rounded=0;whiteSpace=wrap;html=1;" vertex="1" parent="q-AmzgmCeMlgFkVJrfTR-12">
          <mxGeometry x="87.5" y="10" width="115" height="40" as="geometry" />
        </mxCell>
        <mxCell id="q-AmzgmCeMlgFkVJrfTR-18" value="&lt;font style=&quot;font-size: 8px;&quot;&gt;Preprocessing&lt;/font&gt;" style="rounded=0;whiteSpace=wrap;html=1;" vertex="1" parent="q-AmzgmCeMlgFkVJrfTR-12">
          <mxGeometry x="10" y="70" width="70" height="20" as="geometry" />
        </mxCell>
        <mxCell id="q-AmzgmCeMlgFkVJrfTR-20" value="&lt;font style=&quot;font-size: 9px;&quot;&gt;Segmentation&lt;/font&gt;" style="rounded=0;whiteSpace=wrap;html=1;" vertex="1" parent="q-AmzgmCeMlgFkVJrfTR-12">
          <mxGeometry x="90" y="70" width="70" height="20" as="geometry" />
        </mxCell>
        <mxCell id="q-AmzgmCeMlgFkVJrfTR-21" value="" style="endArrow=none;dashed=1;html=1;dashPattern=1 3;strokeWidth=2;rounded=0;" edge="1" parent="q-AmzgmCeMlgFkVJrfTR-12">
          <mxGeometry width="50" height="50" relative="1" as="geometry">
            <mxPoint x="162.5" y="79.65999999999997" as="sourcePoint" />
            <mxPoint x="182.5" y="79.65999999999997" as="targetPoint" />
          </mxGeometry>
        </mxCell>
        <mxCell id="q-AmzgmCeMlgFkVJrfTR-23" value="&lt;font style=&quot;font-size: 9px;&quot;&gt;Labler&lt;/font&gt;" style="rounded=0;whiteSpace=wrap;html=1;" vertex="1" parent="q-AmzgmCeMlgFkVJrfTR-12">
          <mxGeometry x="182.5" y="70" width="70" height="20" as="geometry" />
        </mxCell>
        <mxCell id="q-AmzgmCeMlgFkVJrfTR-24" value="Integration Layer" style="swimlane;horizontal=0;whiteSpace=wrap;html=1;direction=west;" vertex="1" parent="1">
          <mxGeometry x="78" y="420" width="182" height="190" as="geometry" />
        </mxCell>
        <mxCell id="q-AmzgmCeMlgFkVJrfTR-25" value="HL7 Adapter" style="rounded=0;whiteSpace=wrap;html=1;" vertex="1" parent="q-AmzgmCeMlgFkVJrfTR-24">
          <mxGeometry x="40" y="30" width="115" height="40" as="geometry" />
        </mxCell>
        <mxCell id="q-AmzgmCeMlgFkVJrfTR-32" value="DICOM Adapter" style="rounded=0;whiteSpace=wrap;html=1;" vertex="1" parent="q-AmzgmCeMlgFkVJrfTR-24">
          <mxGeometry x="40" y="120" width="115" height="40" as="geometry" />
        </mxCell>
        <mxCell id="q-AmzgmCeMlgFkVJrfTR-33" value="Infraastructure Layer" style="swimlane;horizontal=0;whiteSpace=wrap;html=1;direction=west;" vertex="1" parent="1">
          <mxGeometry x="640" y="220" width="180" height="340" as="geometry" />
        </mxCell>
        <mxCell id="q-AmzgmCeMlgFkVJrfTR-34" value="Logging" style="rounded=0;whiteSpace=wrap;html=1;" vertex="1" parent="q-AmzgmCeMlgFkVJrfTR-33">
          <mxGeometry x="20" y="70" width="115" height="40" as="geometry" />
        </mxCell>
        <mxCell id="q-AmzgmCeMlgFkVJrfTR-35" value="Config" style="rounded=0;whiteSpace=wrap;html=1;" vertex="1" parent="q-AmzgmCeMlgFkVJrfTR-33">
          <mxGeometry x="20" y="149" width="115" height="40" as="geometry" />
        </mxCell>
        <mxCell id="q-AmzgmCeMlgFkVJrfTR-36" value="Local storage" style="rounded=0;whiteSpace=wrap;html=1;" vertex="1" parent="q-AmzgmCeMlgFkVJrfTR-33">
          <mxGeometry x="20" y="220" width="115" height="40" as="geometry" />
        </mxCell>
        <mxCell id="q-AmzgmCeMlgFkVJrfTR-31" value="&lt;font style=&quot;font-size: 9px;&quot;&gt;Plugin manager&lt;/font&gt;" style="rounded=1;whiteSpace=wrap;html=1;" vertex="1" parent="q-AmzgmCeMlgFkVJrfTR-33">
          <mxGeometry x="50" y="20" width="70" height="30" as="geometry" />
        </mxCell>
        <mxCell id="q-AmzgmCeMlgFkVJrfTR-38" value="Data Layer" style="swimlane;horizontal=0;whiteSpace=wrap;html=1;direction=west;" vertex="1" parent="1">
          <mxGeometry x="78" y="200" width="182" height="190" as="geometry" />
        </mxCell>
        <mxCell id="q-AmzgmCeMlgFkVJrfTR-40" value="HIS" style="rounded=0;whiteSpace=wrap;html=1;" vertex="1" parent="q-AmzgmCeMlgFkVJrfTR-38">
          <mxGeometry x="30" y="30" width="115" height="40" as="geometry" />
        </mxCell>
        <mxCell id="q-AmzgmCeMlgFkVJrfTR-41" value="VNA" style="rounded=0;whiteSpace=wrap;html=1;" vertex="1" parent="q-AmzgmCeMlgFkVJrfTR-38">
          <mxGeometry x="30" y="140" width="115" height="40" as="geometry" />
        </mxCell>
        <mxCell id="q-AmzgmCeMlgFkVJrfTR-39" value="PACS" style="rounded=0;whiteSpace=wrap;html=1;" vertex="1" parent="q-AmzgmCeMlgFkVJrfTR-38">
          <mxGeometry x="30" y="80" width="115" height="40" as="geometry" />
        </mxCell>
      </root>
    </mxGraphModel>
  </diagram>
</mxfile>
